<svg width="28" height="29" viewBox="0 0 28 29" fill="none" xmlns="http://www.w3.org/2000/svg">
<g filter="url(#filter0_d_1_473)">
<path d="M24 5.79997C23.2483 6.12606 22.4534 6.34163 21.64 6.43997C22.4982 5.92729 23.1413 5.12075 23.45 4.16997C22.6436 4.65003 21.7608 4.98826 20.84 5.16997C20.2245 4.50254 19.405 4.05826 18.5098 3.90682C17.6147 3.75537 16.6945 3.90532 15.8938 4.33315C15.093 4.76099 14.4569 5.4425 14.0852 6.2708C13.7135 7.09911 13.6273 8.02736 13.84 8.90997C12.2094 8.82749 10.6144 8.40292 9.15865 7.66383C7.70287 6.92474 6.41885 5.88766 5.39 4.61997C5.02914 5.25013 4.83952 5.96379 4.84 6.68997C4.83872 7.36435 5.00422 8.02858 5.32176 8.62353C5.63929 9.21848 6.09902 9.72568 6.66 10.1C6.00798 10.0822 5.36989 9.90726 4.8 9.58997V9.63997C4.80489 10.5849 5.13599 11.4991 5.73731 12.2279C6.33864 12.9568 7.17326 13.4556 8.1 13.64C7.74326 13.7485 7.37287 13.8058 7 13.81C6.74189 13.807 6.48442 13.7835 6.23 13.74C6.49391 14.5528 7.00462 15.2631 7.69107 15.7721C8.37753 16.2811 9.20558 16.5635 10.06 16.58C8.6172 17.7152 6.83588 18.3348 5 18.34C4.66574 18.3411 4.33174 18.321 4 18.28C5.87443 19.4902 8.05881 20.1327 10.29 20.13C11.8297 20.146 13.3571 19.855 14.7831 19.274C16.2091 18.6931 17.505 17.8338 18.5952 16.7465C19.6854 15.6591 20.548 14.3654 21.1326 12.9409C21.7172 11.5164 22.012 9.98969 22 8.44997C22 8.27996 22 8.09997 22 7.91997C22.7847 7.33478 23.4615 6.61739 24 5.79997Z" fill="white"/>
</g>
<defs>
<filter id="filter0_d_1_473" x="-2" y="0" width="32" height="32" filterUnits="userSpaceOnUse" color-interpolation-filters="sRGB">
<feFlood flood-opacity="0" result="BackgroundImageFix"/>
<feColorMatrix in="SourceAlpha" type="matrix" values="0 0 0 0 0 0 0 0 0 0 0 0 0 0 0 0 0 0 127 0" result="hardAlpha"/>
<feOffset dy="4"/>
<feGaussianBlur stdDeviation="2"/>
<feComposite in2="hardAlpha" operator="out"/>
<feColorMatrix type="matrix" values="0 0 0 0 0 0 0 0 0 0 0 0 0 0 0 0 0 0 0.25 0"/>
<feBlend mode="normal" in2="BackgroundImageFix" result="effect1_dropShadow_1_473"/>
<feBlend mode="normal" in="SourceGraphic" in2="effect1_dropShadow_1_473" result="shape"/>
</filter>
</defs>
</svg>
